<svg width="800" height="800" viewBox="0 0 800 800" fill="none" xmlns="http://www.w3.org/2000/svg">
<path d="M400 750C593.3 750 750 593.3 750 400C750 206.7 593.3 50 400 50C206.7 50 50 206.7 50 400C50 593.3 206.7 750 400 750Z" fill="url(#paint0_linear_337_2)"/>
<path d="M688.625 406.075H123.1C119.939 405.436 116.679 405.473 113.534 406.184C110.388 406.895 107.429 408.264 104.85 410.2C102.272 412.136 100.132 414.597 98.5722 417.419C97.0123 420.241 96.0675 423.362 95.7998 426.575C96.3498 433.725 97.1831 440.8 98.2998 447.8C109.199 521.339 146.163 588.511 202.453 637.073C258.742 685.634 330.608 712.35 404.95 712.35C479.291 712.35 551.158 685.634 607.447 637.073C663.736 588.511 700.7 521.339 711.6 447.8C712.85 439.467 713.75 430.959 714.3 422.275C711.95 413.075 705.275 405.175 688.625 406.075Z" fill="#00C000"/>
<path fill-rule="evenodd" clip-rule="evenodd" d="M462 291L592.675 181.65L494.675 147L400 276.325" fill="#FAE7E3"/>
<path fill-rule="evenodd" clip-rule="evenodd" d="M392 275.65L466 147H371.325L332.675 282.325" fill="#FAE7E3"/>
<path fill-rule="evenodd" clip-rule="evenodd" d="M326 284.325L340 167.65L264.675 199L275.325 319" fill="#FAE7E3"/>
<path fill-rule="evenodd" clip-rule="evenodd" d="M268.675 325L244.675 219L192.675 271L241.325 367" fill="#FAE7E3"/>
<path fill-rule="evenodd" clip-rule="evenodd" d="M234.675 376.325L187.325 309.4L166 361.65L226 412.925" fill="#FAE7E3"/>
<path fill-rule="evenodd" clip-rule="evenodd" d="M226 418.925L166 380.325L162 435L230 458.325" fill="#FAE7E3"/>
<path fill-rule="evenodd" clip-rule="evenodd" d="M230.675 471.15L166 451L180.675 495H238.675" fill="#FAE7E3"/>
<path fill-rule="evenodd" clip-rule="evenodd" d="M242.675 502.325L192.675 509.65L215.675 543.65L256.675 525" fill="#FAE7E3"/>
<path fill-rule="evenodd" clip-rule="evenodd" d="M500.575 327.225C470.73 296.513 430.128 278.587 387.325 277.225C355.482 277.251 324.396 286.939 298.177 305.009C271.957 323.079 251.838 348.68 240.479 378.429C229.12 408.177 227.055 440.672 234.558 471.618C242.061 502.565 258.778 530.507 282.5 551.75L406.025 554.975L354.025 450.975L500.575 327.225Z" fill="#EEEEEE"/>
<path d="M412.5 559.15L280.825 555.7L279.725 554.725C255.365 532.949 238.191 504.288 230.476 472.537C222.762 440.786 224.871 407.441 236.525 376.914C248.178 346.388 268.826 320.12 295.736 301.587C322.647 283.053 354.55 273.128 387.225 273.125C431.089 274.554 472.692 292.923 503.3 324.375L506.375 327.45L358.875 452L412.5 559.15ZM284 547.775L399.4 550.8L349.025 450L494.65 327.025C465.892 298.833 427.6 282.461 387.35 281.15C356.414 281.145 326.2 290.498 300.678 307.98C275.155 325.462 255.518 350.256 244.346 379.104C233.174 407.952 230.99 439.505 238.081 469.617C245.171 499.73 261.205 526.993 284.075 547.825L284 547.775Z" fill="#EE4B2E"/>
<path fill-rule="evenodd" clip-rule="evenodd" d="M300.325 512.325C196 367 353.05 308.025 362.275 301C373.55 292.4 172.525 345.625 281.625 523L300.325 512.325Z" fill="#F04E31"/>
<path fill-rule="evenodd" clip-rule="evenodd" d="M518 315L338 439.175L343.325 464.325L536.675 425.65L518 315Z" fill="#EEEEEE"/>
<path d="M340.25 469.025L333.525 437.5L520.9 308.25L541.25 428.95L340.25 469.025ZM342.475 440.95L346.425 459.625L532.075 422.5L515 321.85L342.475 440.95Z" fill="#EE4B2E"/>
<path fill-rule="evenodd" clip-rule="evenodd" d="M393.075 532.975C294.825 516.275 286 543.675 286 543.675L256.675 611C256.675 611 284.675 588.325 394 611L413 576.3L393.075 532.975Z" fill="#DD0C13"/>
<path fill-rule="evenodd" clip-rule="evenodd" d="M353.05 540C352.55 535 325.55 532.025 311.125 536.925C292.825 543.15 280.65 565.475 285 567.25C290.781 555.663 300.881 546.811 313.125 542.6C336.175 537.325 353.55 545 353.05 540Z" fill="#FF6E4F"/>
<path fill-rule="evenodd" clip-rule="evenodd" d="M388 465.15C399.661 478.762 412.613 491.212 426.675 502.325C461.202 527.018 485.413 563.574 494.675 605C492 631.675 445.35 649 445.35 649L362.675 469.15L388 465.15Z" fill="#EEEEEE"/>
<path d="M443.25 654.025L356.825 466L389.825 460.8L391.25 462.825C402.652 476.106 415.311 488.254 429.05 499.1C464.497 524.298 489.291 561.792 498.6 604.275V604.825V605.375C495.725 634.2 448.6 651.975 446.675 652.725L443.25 654.025ZM368.5 472.275L447.375 643.85C457.725 639.4 488.125 624.775 490.625 605.15C481.349 565.049 457.824 529.681 424.425 505.625L424.175 505.45C410.506 494.59 397.816 482.552 386.25 469.475L368.5 472.275Z" fill="#EE4B2E"/>
<path opacity="0.2" fill-rule="evenodd" clip-rule="evenodd" d="M700 318.55C700.625 328.4 700.85 338.35 700.625 348.4C699.335 406.502 683.541 463.361 654.68 513.805C625.819 564.249 584.805 606.678 535.369 637.234C485.933 667.79 429.643 685.503 371.618 688.763C313.592 692.023 255.672 680.726 203.125 655.9C256.51 693.136 319.94 713.292 385.027 713.702C450.114 714.112 513.792 694.757 567.642 658.196C621.492 621.635 662.976 569.59 686.61 508.944C710.243 448.298 714.912 381.907 700 318.55Z" fill="#CCFF33"/>
<path opacity="0.2" d="M59.5752 347.325C69.1671 284.568 95.7181 225.624 136.362 176.854C177.006 128.085 230.198 91.3434 290.197 70.5957C350.196 49.848 414.723 45.8825 476.811 59.1273C538.899 72.3721 596.191 102.324 642.5 145.75C642.5 145.75 517.275 295.225 377.9 343.425C238.525 391.625 59.5752 347.325 59.5752 347.325Z" fill="#EAE0DF"/>
<path opacity="0.2" fill-rule="evenodd" clip-rule="evenodd" d="M90.45 467.35C89.35 457.55 88.65 447.6 88.375 437.575C83.225 245.175 250.3 105 442.7 99.775C492.385 101.778 541.096 114.196 585.675 136.225C532.888 99.2708 470.39 78.673 405.975 77C228.475 81.75 73.325 209.5 78.075 387C78.7869 414.199 82.9451 441.197 90.45 467.35Z" fill="#EAE0DF"/>
<defs>
<linearGradient id="paint0_linear_337_2" x1="400" y1="-11.075" x2="400" y2="551.05" gradientUnits="userSpaceOnUse">
<stop offset="0.021" stop-color="#FF0C15"/>
<stop offset="1" stop-color="#9A0C0F"/>
</linearGradient>
</defs>
</svg>
